<?xml version="1.0" encoding="UTF-8" standalone="no"?>
<svg width="96" height="96" viewBox="0 0 4080 4080" version="1.1" xmlns="http://www.w3.org/2000/svg"
   xmlns:svg="http://www.w3.org/2000/svg">
   <defs />
   <g fill="rgb(196,189,184)">
      <g>
         <path
            d="M3197 3344 c-3 -4 -4 -18 -1 -33 5 -24 1 -29 -48 -53 -113 -55 -186 -88 -199 -88 -8 0 -59 -23 -113 -50 -54 -28 -105 -50 -113 -50 -8 0 -74 -25 -146 -56 -73 -31 -158 -65 -191 -76 -32 -11 -75 -30 -95 -42 -35 -22 -182 -91 -286 -134 -27 -12 -127 -55 -222 -96 -95 -42 -174 -76 -177 -76 -2 0 -69 -30 -148 -66 -79 -36 -196 -90 -261 -120 -64 -30 -123 -54 -131 -54 -26 0 -682 -339 -728 -377 -64 -52 -103 -128 -94 -185 6 -34 29 -99 42 -117 6 -7 80 32 107 57 33 31 36 85 7 122 -11 14 -20 29 -20 34 0 12 32 35 49 36 8 0 37 17 65 38 66 49 128 84 246 136 52 24 135 69 185 101 49 32 110 66 135 76 25 10 77 33 115 52 39 19 97 42 130 51 59 16 195 74 285 121 25 12 88 37 140 55 52 18 109 40 125 50 17 10 64 32 105 50 41 18 89 42 105 55 43 32 85 51 126 59 21 4 54 18 75 33 55 37 130 70 210 92 38 11 92 28 119 39 28 11 74 30 103 41 29 12 83 37 120 55 102 51 207 91 314 120 125 33 136 33 140 -1 3 -24 8 -28 40 -31 25 -2 41 -10 52 -26 23 -35 106 -115 148 -142 21 -13 45 -36 55 -51 10 -16 30 -39 46 -51 15 -13 27 -31 27 -41 0 -9 11 -32 24 -52 14 -20 28 -53 32 -75 3 -21 11 -44 16 -51 13 -17 48 -115 48 -135 0 -11 7 -18 19 -18 16 0 19 11 24 88 8 106 -9 190 -53 258 -16 26 -30 53 -30 60 0 19 -64 90 -120 135 -29 23 -74 62 -100 87 -62 60 -148 123 -180 132 -21 5 -25 13 -28 51 -1 24 -4 50 -7 57 -4 12 -76 17 -88 6z" />
         <path
            d="M987 928 l-78 -31 3 -36 c4 -51 34 -51 136 -2 76 37 82 43 82 71 0 27 -3 30 -32 29 -18 0 -68 -14 -111 -31z" />
      </g>
   </g>
   <g fill="rgb(164,156,153)">
      <g>
         <path
            d="M3258 3225 c4 -22 1 -25 -27 -25 -75 0 -299 -74 -443 -146 -37 -18 -91 -43 -120 -55 -29 -11 -75 -30 -103 -41 -27 -11 -81 -28 -119 -39 -80 -22 -155 -55 -210 -92 -21 -15 -54 -29 -75 -33 -41 -8 -83 -27 -126 -59 -16 -13 -64 -37 -105 -55 -41 -18 -88 -40 -105 -50 -16 -10 -73 -32 -125 -50 -52 -18 -115 -43 -140 -55 -90 -47 -226 -105 -285 -121 -33 -9 -91 -32 -130 -51 -38 -19 -90 -42 -115 -52 -25 -10 -86 -44 -135 -76 -50 -32 -133 -77 -185 -101 -118 -52 -180 -87 -246 -136 -28 -21 -57 -38 -65 -38 -8 0 -25 -9 -38 -19 -20 -15 -23 -24 -18 -51 4 -17 16 -45 28 -61 20 -29 20 -31 4 -50 -18 -19 -17 -19 38 -19 73 0 91 22 85 107 l-3 57 58 46 c31 26 76 53 100 59 23 7 56 21 72 31 60 36 146 79 180 90 83 27 327 140 356 165 41 34 132 80 189 95 25 6 68 24 95 40 28 15 68 33 90 40 22 7 67 25 100 41 33 15 87 36 120 47 160 54 242 86 299 118 35 19 87 41 117 50 50 15 117 53 164 94 11 10 56 29 100 43 45 14 111 39 147 56 37 16 88 33 115 36 46 7 96 25 232 86 65 30 108 35 207 23 42 -5 54 -11 63 -30 8 -19 18 -24 46 -24 43 0 102 -49 152 -127 18 -29 47 -63 64 -75 17 -13 38 -36 46 -53 9 -16 32 -51 52 -77 28 -36 43 -47 65 -48 21 0 26 3 19 13 -6 6 -14 30 -17 51 -4 22 -18 55 -32 75 -13 20 -24 43 -24 52 0 10 -12 28 -27 41 -16 12 -36 35 -46 51 -10 15 -34 38 -55 51 -42 27 -125 107 -148 141 -17 25 -74 51 -74 34 0 -6 -4 -7 -10 -4 -5 3 -10 18 -10 33 0 45 -11 72 -30 72 -13 0 -16 -6 -12 -25z" />
      </g>
   </g>
   <g fill="rgb(177,122,77)">
      <g>
         <path
            d="M3257 3063 c-13 -12 -7 -170 8 -219 8 -27 15 -65 15 -84 0 -19 11 -71 25 -115 13 -44 27 -100 31 -125 4 -25 12 -52 19 -60 16 -19 47 -87 55 -120 5 -22 10 -25 50 -25 40 0 48 -4 69 -35 13 -19 35 -48 48 -63 14 -18 23 -42 23 -64 0 -24 11 -53 36 -89 38 -59 48 -64 64 -34 6 11 39 37 73 59 94 59 100 66 95 114 -4 36 -63 270 -98 388 -6 20 -37 71 -70 114 -32 42 -62 85 -65 95 -3 10 -21 30 -40 45 -19 14 -50 49 -68 78 -50 77 -109 127 -151 127 -19 0 -38 5 -41 10 -7 11 -68 14 -78 3z m117 -195 c-3 -46 -8 -84 -9 -86 -5 -6 -14 151 -9 159 3 5 10 9 15 9 7 0 8 -29 3 -82z m105 -125 l-2 -98 -8 75 c-8 69 -5 120 6 120 3 0 4 -44 4 -97z m186 -160 c30 -45 32 -57 6 -44 -20 11 -51 81 -36 81 2 0 16 -17 30 -37z m-115 -61 c0 -15 7 -38 16 -50 14 -21 14 -22 -5 -22 -17 0 -21 6 -21 31 0 17 -5 39 -10 50 -8 15 -7 19 5 19 10 0 15 -9 15 -28z" />
         <path d="M1380 1111 c-55 -10 -110 -51 -110 -83 l0 -28 53 21 c131 52 181 75 185 87 4 13 -61 15 -128 3z" />
      </g>
   </g>
   <g fill="rgb(131,119,115)">
      <g>
         <path
            d="M3280 3122 c0 -16 -10 -17 -106 -14 -98 4 -111 2 -163 -21 -123 -57 -198 -85 -244 -92 -27 -3 -78 -20 -115 -36 -36 -17 -102 -42 -147 -56 -44 -14 -89 -33 -100 -43 -47 -41 -114 -79 -164 -94 -30 -9 -82 -31 -117 -50 -57 -32 -139 -64 -299 -118 -33 -11 -87 -32 -120 -47 -33 -16 -78 -34 -100 -41 -22 -7 -62 -25 -90 -40 -27 -16 -70 -34 -95 -40 -57 -15 -148 -61 -189 -95 -29 -25 -273 -138 -356 -165 -34 -11 -117 -53 -180 -90 -16 -10 -48 -23 -70 -30 -47 -15 -138 -80 -161 -116 -14 -21 -15 -31 -5 -65 7 -22 9 -44 5 -50 -4 -7 4 -9 22 -7 18 2 33 13 44 33 23 42 228 187 309 219 25 10 57 26 71 36 14 10 69 33 121 50 51 18 99 36 105 41 6 5 49 24 95 43 46 18 109 47 139 63 30 17 73 36 95 43 22 7 69 30 104 51 36 22 70 39 76 39 6 0 33 11 61 24 27 13 72 31 99 41 43 14 142 61 202 94 27 15 141 60 203 80 55 18 190 87 200 102 10 15 347 151 425 171 22 6 65 19 95 30 71 26 165 41 265 42 55 1 83 5 88 14 6 9 18 11 33 8 28 -8 28 -8 8 55 -16 47 -44 68 -44 31z" />
      </g>
   </g>
   <g fill="rgb(183,108,35)">
      <g>
         <path
            d="M3270 2857 c0 -7 -20 -21 -45 -31 -42 -18 -45 -21 -45 -58 0 -36 1 -38 33 -38 17 0 49 -3 71 -7 36 -6 38 -5 31 16 -8 27 -1 27 25 -1 l20 -22 0 52 c0 29 -4 52 -10 52 -5 0 -10 11 -10 25 0 14 -4 25 -9 25 -5 0 -7 -18 -4 -40 3 -24 2 -40 -4 -40 -6 0 -13 18 -17 40 -4 26 -11 40 -21 40 -8 0 -15 -6 -15 -13z" />
         <path
            d="M2625 2792 c-60 -26 -114 -50 -120 -53 -5 -4 -41 -19 -80 -34 -38 -15 -75 -31 -81 -36 -5 -5 -64 -29 -130 -54 -65 -25 -164 -68 -219 -94 -109 -54 -420 -191 -431 -191 -4 0 -36 -15 -73 -34 -36 -18 -163 -75 -281 -126 -275 -118 -304 -131 -427 -188 l-102 -47 -1 -37 c0 -37 1 -38 38 -38 35 0 123 35 417 164 79 35 83 37 205 89 58 25 159 69 225 97 66 29 170 74 230 99 133 57 191 82 360 157 72 31 180 78 240 105 61 26 184 81 275 122 l165 73 3 37 3 37 -53 -1 c-39 -1 -81 -13 -163 -47z" />
         <path
            d="M3484 2583 c-4 -15 -1 -40 6 -57 7 -17 15 -44 17 -61 3 -16 11 -37 17 -45 6 -8 20 -32 30 -52 16 -31 25 -38 48 -38 30 0 30 6 3 40 -7 8 -15 23 -18 33 -10 28 21 20 36 -9 8 -16 17 -22 21 -16 3 6 2 13 -4 17 -15 10 -12 35 5 35 24 0 18 12 -24 50 -30 28 -39 45 -45 83 -5 31 -12 47 -22 47 -8 0 -14 -7 -14 -15 0 -8 -7 -15 -15 -15 -8 0 -15 7 -15 15 0 25 -19 17 -26 -12z" />
         <path
            d="M3303 2547 c-18 -6 -33 -15 -33 -19 0 -4 -8 -8 -18 -8 -23 0 -186 -70 -190 -81 -2 -5 -11 -9 -21 -9 -9 0 -48 -13 -86 -29 -39 -16 -140 -57 -225 -91 -85 -35 -160 -71 -167 -79 -7 -9 -13 -37 -13 -64 0 -39 7 -58 42 -112 24 -36 48 -65 55 -65 7 0 13 -6 13 -14 0 -8 9 -31 21 -50 l20 -35 -30 -15 c-16 -9 -32 -16 -36 -16 -3 0 -5 21 -5 48 0 63 -47 137 -110 171 -36 20 -59 25 -115 25 -66 -1 -80 -5 -260 -87 -104 -48 -191 -82 -193 -77 -9 27 -85 6 -269 -72 -190 -82 -193 -83 -193 -114 0 -26 -6 -33 -42 -49 -24 -10 -69 -31 -100 -46 -44 -20 -58 -24 -58 -13 0 10 -13 14 -44 14 -33 0 -95 -21 -238 -81 -349 -145 -468 -201 -468 -220 0 -13 -11 -18 -51 -21 -28 -1 -53 0 -56 5 -8 13 -68 7 -91 -9 -27 -19 -29 -44 -3 -51 17 -4 18 -9 9 -28 -12 -26 -13 -25 99 -198 70 -107 212 -272 244 -282 12 -4 31 0 45 10 21 14 31 15 54 5 19 -8 34 -8 47 -2 10 5 39 13 66 16 26 4 47 11 47 15 0 5 37 24 83 42 91 36 199 97 243 138 67 61 99 77 170 88 39 6 107 26 150 46 90 40 154 66 494 207 331 137 615 256 670 282 25 11 101 44 170 73 69 29 200 84 292 124 92 39 181 71 196 71 18 0 47 13 73 33 66 51 87 60 125 52 29 -5 38 -2 59 21 14 15 25 31 25 36 0 5 -16 34 -36 64 -20 30 -34 58 -30 61 3 4 23 -9 43 -28 40 -38 36 -25 -11 35 -36 46 -44 57 -109 154 -47 70 -70 91 -60 53 3 -13 -2 -20 -18 -24 -27 -7 -39 -1 -39 20 0 16 -40 104 -62 135 -10 14 -9 21 6 37 19 21 19 21 -15 20 -19 -1 -49 -7 -66 -12z m-833 -618 c-6 -10 -17 -19 -24 -19 -18 0 -27 51 -13 69 17 21 50 -24 37 -50z m-291 -115 c2 -2 -5 -4 -15 -4 -11 0 -25 -5 -32 -12 -9 -9 -12 -7 -12 10 0 19 4 21 28 16 15 -4 29 -8 31 -10z m-132 -44 l26 -20 -32 -1 c-17 -1 -37 -2 -43 -3 -20 -2 -21 32 -1 37 10 3 20 5 21 6 2 0 15 -8 29 -19z m-153 -75 c16 -25 16 -25 -17 -25 -43 0 -63 18 -39 36 25 19 38 17 56 -11z m-157 -54 c10 -15 9 -20 -2 -25 -8 -3 -15 -1 -15 3 0 5 -3 16 -6 25 -9 22 9 20 23 -3z m-131 -71 c8 0 14 -5 14 -11 0 -15 -53 -6 -58 10 -3 10 0 12 12 8 10 -4 24 -7 32 -7z m-346 -51 c0 -28 5 -59 10 -70 8 -15 7 -19 -5 -19 -8 0 -15 6 -15 13 0 8 -13 32 -29 55 -30 41 -29 51 9 65 28 10 30 7 30 -44z m109 -179 c19 -10 21 -14 10 -21 -22 -14 -24 -12 -63 49 l-38 57 34 -37 c18 -20 44 -42 57 -48z m-782 -76 c8 -20 -2 -27 -26 -19 -14 4 -21 15 -21 31 0 22 2 23 21 14 11 -6 23 -18 26 -26z m513 -343 c0 -16 -128 -74 -146 -67 -22 9 -21 9 66 45 89 36 80 33 80 22z" />
      </g>
   </g>
   <g fill="rgb(106,89,81)">
      <g>
         <path
            d="M3300 3077 c0 -28 26 -46 69 -49 47 -3 68 -24 30 -30 -22 -3 -22 -4 -5 -21 17 -17 19 -17 37 -1 11 9 19 23 19 30 0 20 -41 44 -77 44 -22 0 -36 6 -43 20 -12 23 -30 27 -30 7z" />
         <path
            d="M3087 3044 c-3 -4 -34 -10 -69 -14 -35 -4 -88 -17 -118 -28 -30 -11 -73 -24 -95 -30 -78 -20 -415 -156 -425 -171 -10 -15 -145 -84 -200 -102 -62 -20 -176 -65 -203 -80 -60 -33 -159 -80 -202 -94 -27 -10 -72 -28 -99 -41 -28 -13 -55 -24 -61 -24 -6 0 -40 -17 -76 -39 -35 -21 -82 -44 -104 -51 -22 -7 -65 -26 -95 -43 -30 -16 -93 -45 -139 -63 -46 -19 -89 -38 -95 -43 -6 -5 -54 -23 -105 -41 -52 -17 -107 -40 -121 -50 -14 -10 -46 -26 -71 -36 -75 -29 -288 -178 -305 -213 -7 -12 -17 -28 -23 -34 -35 -35 21 -36 115 -2 38 14 70 25 71 25 1 0 9 13 18 30 8 16 27 40 41 53 29 28 163 97 186 97 8 0 56 18 107 40 50 22 99 40 107 40 20 0 84 34 110 58 36 34 121 72 160 72 27 0 56 12 103 42 79 52 121 68 184 68 55 0 114 32 136 73 19 35 65 52 133 48 52 -3 59 0 96 33 22 20 77 55 123 79 46 24 100 53 119 65 19 12 45 22 58 22 26 0 82 27 132 65 19 14 67 35 105 47 63 18 130 45 251 98 26 12 46 15 55 9 29 -18 77 -9 135 26 45 27 69 35 107 35 86 0 178 46 149 74 -7 8 -187 7 -195 0z" />
      </g>
   </g>
   <g fill="rgb(141,65,14)">
      <g>
         <path
            d="M3207 3021 c-10 -3 -23 -18 -30 -31 -7 -15 -24 -27 -43 -30 -17 -4 -49 -17 -72 -30 l-42 -24 0 -128 c0 -79 4 -128 10 -128 6 0 10 -6 10 -14 0 -7 6 -18 13 -24 15 -13 8 -107 -8 -107 -11 0 -22 44 -24 98 -1 30 -6 40 -21 44 -11 3 -20 13 -21 22 0 9 -13 26 -29 39 -27 21 -34 22 -130 16 -95 -7 -102 -9 -125 -36 -13 -15 -32 -28 -42 -28 -11 0 -24 -5 -31 -12 -14 -14 -16 -87 -3 -107 10 -16 0 -21 -194 -97 -49 -20 -109 -47 -132 -61 -38 -22 -43 -23 -43 -8 0 15 -7 17 -50 12 -47 -6 -50 -5 -50 16 0 33 -19 47 -60 47 -44 0 -60 -15 -60 -55 0 -17 -5 -36 -11 -42 -6 -6 -10 -29 -7 -51 3 -40 2 -41 -42 -61 -25 -11 -58 -23 -75 -26 -16 -4 -45 -18 -63 -31 -17 -14 -62 -34 -100 -45 -37 -11 -110 -39 -162 -63 -94 -43 -155 -67 -175 -68 -50 -4 -72 4 -88 32 -16 26 -24 30 -62 30 -50 0 -57 -8 -65 -70 -4 -38 -8 -45 -25 -42 -11 2 -27 12 -37 23 -10 12 -29 19 -52 19 -44 0 -56 -20 -63 -101 -5 -46 -3 -59 8 -59 8 0 -4 -9 -26 -19 -22 -10 -42 -15 -45 -12 -24 28 -75 51 -114 51 -39 0 -48 -4 -75 -37 -24 -29 -31 -47 -31 -80 0 -34 -5 -45 -22 -54 -13 -6 -34 -22 -48 -35 -14 -13 -47 -28 -73 -33 -57 -10 -83 -31 -91 -74 -6 -30 -8 -32 -51 -32 -34 0 -45 4 -45 15 0 23 -20 40 -46 40 -20 0 -23 6 -26 42 -3 37 -7 44 -27 46 l-24 4 7 -79 c4 -43 8 -91 8 -108 0 -38 35 -176 47 -188 6 -6 20 -1 36 12 28 22 45 20 45 -5 0 -18 11 -18 46 1 46 24 54 20 54 -30 0 -39 3 -45 25 -51 50 -12 72 -74 34 -94 -16 -9 -25 -8 -40 6 -25 22 -24 8 1 -34 22 -35 39 -42 36 -14 -1 21 58 30 80 11 11 -9 14 -9 15 2 1 8 2 21 3 29 1 15 22 27 138 79 38 16 68 33 68 36 0 10 -39 -4 -132 -47 -111 -52 -120 -49 -116 38 2 63 1 67 -27 90 -16 13 -27 25 -25 28 9 8 271 123 468 206 186 77 251 97 210 66 -25 -19 -22 -26 11 -26 29 0 65 14 226 89 48 23 91 41 96 41 5 0 9 6 9 13 0 9 -11 12 -35 9 -19 -2 -35 0 -35 4 0 13 390 178 398 169 4 -4 -1 -12 -11 -19 -20 -16 -22 -26 -3 -26 7 0 114 45 237 101 123 55 240 101 259 102 19 1 68 17 108 36 55 26 72 39 72 55 1 44 -6 41 345 183 61 25 121 46 134 48 13 2 27 8 30 13 10 16 179 84 191 77 5 -3 13 1 16 9 3 9 13 16 21 16 24 0 73 30 73 45 0 9 -6 12 -15 9 -10 -4 -15 0 -15 12 0 9 -8 41 -17 71 -15 46 -20 53 -43 53 -14 0 -31 -5 -37 -11 -9 -9 -14 -3 -21 22 -8 32 -7 35 22 45 16 6 32 16 34 22 2 8 -8 7 -32 -3 -40 -17 -56 -19 -56 -7 0 5 21 17 46 28 44 18 45 20 40 54 -3 19 -9 68 -12 108 -6 70 -7 72 -33 71 -14 0 -34 -4 -44 -8z" />
         <path d="M3301 2955 c0 -11 4 -27 9 -35 9 -13 10 -13 9 0 0 8 -4 24 -9 35 l-9 20 0 -20z" />
         <path
            d="M2813 2877 c-58 -25 -73 -36 -73 -54 0 -19 4 -21 38 -17 33 5 35 4 20 -9 -53 -43 37 -36 123 9 65 34 69 39 69 70 l0 34 -52 0 c-38 0 -74 -10 -125 -33z" />
         <path
            d="M3621 2737 c0 -10 -10 -30 -21 -45 -19 -26 -20 -30 -5 -87 19 -70 20 -73 45 -58 14 10 21 9 30 -2 7 -8 21 -15 31 -15 32 0 22 44 -25 108 -25 33 -46 73 -49 88 -2 16 -5 21 -6 11z" />
         <path d="M3555 2644 c2 -33 9 -71 14 -85 8 -18 9 -8 4 36 -9 85 -24 127 -18 49z" />
         <path d="M3361 2690 c0 -3 6 -27 14 -55 8 -30 14 -40 14 -25 0 20 -26 97 -28 80z" />
         <path
            d="M3517 2453 c-3 -16 -1 -29 3 -31 5 -2 18 -23 30 -48 23 -46 27 -49 49 -35 11 7 9 13 -8 30 -11 11 -21 28 -21 37 0 18 -31 74 -41 74 -4 0 -9 -12 -12 -27z" />
         <path d="M3510 2373 c0 -19 11 -43 21 -43 13 0 11 14 -6 36 -8 10 -15 14 -15 7z" />
         <path d="M3610 2202 c0 -5 7 -16 16 -23 14 -12 16 -11 13 5 -4 20 -29 35 -29 18z" />
         <path
            d="M3552 2159 c-31 -21 -34 -21 -52 -4 -19 18 -20 17 -20 -12 0 -20 6 -33 18 -37 9 -3 24 -9 32 -13 13 -5 13 -4 1 10 -12 15 -10 18 15 27 40 14 57 25 62 38 6 18 -19 14 -56 -9z" />
         <path
            d="M2900 2106 c-58 -24 -127 -53 -153 -65 -27 -11 -56 -21 -65 -21 -10 0 -32 23 -50 51 -26 38 -39 49 -55 47 -17 -2 -24 -13 -30 -49 -8 -42 -6 -51 22 -96 44 -71 39 -112 -17 -160 -41 -35 -21 -36 59 -5 64 26 74 33 77 57 2 17 11 29 23 32 24 7 24 20 -2 62 -11 18 -17 37 -12 41 4 4 79 36 165 71 87 35 158 67 158 72 0 12 -9 9 -120 -37z" />
         <path
            d="M2394 2000 c-31 -12 -40 -31 -21 -45 9 -6 19 -24 23 -39 7 -28 6 -28 -25 -24 -27 4 -31 2 -31 -19 0 -14 4 -21 10 -18 6 3 13 -1 16 -9 11 -28 35 -19 28 9 -7 27 12 35 34 13 9 -9 12 -8 12 5 0 10 8 17 18 17 10 0 27 7 38 15 12 8 24 11 28 8 17 -17 3 42 -16 67 -17 24 -29 30 -57 29 -20 0 -46 -4 -57 -9z" />
         <path
            d="M645 1915 c-6 -9 -46 -28 -90 -44 -79 -28 -80 -29 -83 -65 -3 -34 -2 -36 27 -36 83 0 241 67 241 102 0 10 -7 18 -15 18 -8 0 -15 5 -15 10 0 6 7 10 15 10 8 0 15 5 15 10 0 17 -84 12 -95 -5z" />
         <path
            d="M1928 1802 c-8 -9 -6 -17 6 -30 9 -10 16 -26 16 -35 0 -17 54 -57 78 -57 19 0 14 20 -5 21 -10 0 -2 7 17 14 19 7 30 14 23 14 -6 1 -14 14 -18 30 -3 16 -13 36 -22 43 -20 17 -81 17 -95 0z" />
         <path
            d="M1857 1755 c-15 -14 -36 -25 -46 -25 -9 0 -22 -5 -28 -11 -16 -16 7 -60 40 -82 23 -15 28 -15 76 10 28 15 51 30 51 34 0 7 -59 99 -63 99 -1 0 -15 -12 -30 -25z" />
         <path
            d="M1685 1696 c-22 -11 -42 -22 -44 -23 -2 -1 9 -17 24 -35 l28 -33 -32 -3 c-46 -5 -61 3 -61 33 0 14 -4 25 -10 25 -5 0 -10 -4 -10 -9 0 -5 -16 -19 -35 -32 -19 -13 -35 -30 -35 -37 0 -7 12 -30 26 -52 28 -41 54 -53 54 -23 0 13 3 14 12 5 20 -20 32 -14 56 28 22 40 56 54 65 28 5 -16 47 18 47 38 0 8 8 10 22 6 22 -5 23 -5 5 19 -10 13 -27 39 -38 57 -24 37 -21 37 -74 8z" />
         <path
            d="M1418 1574 c-21 -11 -28 -22 -28 -44 0 -17 4 -30 9 -30 5 0 11 -9 14 -20 3 -13 13 -20 29 -20 73 1 88 31 37 74 -19 16 -29 32 -25 41 7 19 -1 18 -36 -1z" />
         <path
            d="M1220 1417 c0 -16 -58 -49 -115 -67 -50 -16 -118 -50 -112 -56 6 -6 172 61 214 88 29 17 37 18 44 7 6 -10 9 -6 9 14 0 20 -5 27 -20 27 -11 0 -20 -6 -20 -13z" />
      </g>
   </g>
   <g fill="rgb(88,63,50)">
      <g>
         <path
            d="M3196 3374 c-8 -22 -7 -47 3 -63 8 -12 12 -12 25 -2 18 15 40 5 32 -15 -3 -8 0 -11 10 -7 19 7 19 73 0 73 -7 0 -19 7 -26 15 -16 20 -36 19 -44 -1z" />
         <path
            d="M3042 2990 c-24 -11 -57 -29 -72 -40 -23 -16 -34 -19 -49 -10 -29 15 -65 12 -113 -9 -120 -53 -189 -81 -253 -99 -38 -12 -86 -33 -105 -47 -50 -38 -106 -65 -132 -65 -13 0 -39 -10 -58 -22 -19 -12 -73 -41 -119 -65 -46 -24 -101 -59 -123 -78 -37 -34 -41 -35 -89 -29 -60 8 -120 -15 -140 -53 -22 -41 -82 -73 -136 -73 -63 0 -105 -16 -186 -69 -51 -33 -74 -42 -94 -38 -30 6 -129 -39 -167 -75 -26 -24 -90 -58 -110 -58 -8 0 -57 -18 -107 -40 -51 -22 -99 -40 -107 -40 -23 0 -157 -69 -186 -97 -14 -13 -33 -37 -41 -53 -9 -17 -29 -34 -50 -41 -19 -7 -35 -19 -35 -25 0 -9 18 -5 55 12 31 13 61 24 67 24 7 0 69 26 138 59 185 86 219 101 230 101 5 0 10 14 10 30 l0 30 63 0 c54 0 80 8 207 64 80 35 168 75 196 90 29 14 55 26 58 26 11 0 323 138 431 191 55 26 154 69 219 94 66 25 125 49 130 54 6 5 43 21 81 36 39 15 75 31 80 34 6 4 37 18 70 31 33 13 112 48 175 78 63 29 131 56 150 59 l35 5 -30 -21 c-16 -11 -103 -53 -192 -93 -90 -39 -161 -73 -159 -75 4 -4 173 67 264 111 42 21 88 36 108 36 47 0 70 13 82 48 8 22 23 34 66 52 40 16 56 28 56 41 0 11 -7 19 -17 19 -10 0 -27 2 -38 5 -11 3 -39 -4 -63 -15z" />
         <path d="M2520 2670 c-19 -11 -31 -19 -27 -20 12 0 77 28 77 34 0 10 -14 6 -50 -14z" />
         <path d="M2332 2588 c-40 -17 -71 -32 -69 -34 5 -5 129 45 142 57 12 12 10 12 -73 -23z" />
         <path d="M1950 2420 c-19 -11 -31 -19 -27 -20 12 0 77 28 77 34 0 10 -14 6 -50 -14z" />
         <path d="M1860 2380 c-19 -11 -30 -19 -25 -19 6 0 26 8 45 19 19 11 31 19 25 19 -5 0 -26 -8 -45 -19z" />
         <path d="M1750 2335 c-30 -13 -48 -24 -40 -24 8 0 38 11 65 24 65 30 46 30 -25 0z" />
         <path d="M1397 2181 c-154 -67 -181 -81 -160 -81 15 0 305 128 317 140 15 15 13 14 -157 -59z" />
         <path
            d="M885 1960 c-171 -75 -227 -101 -223 -105 7 -8 116 35 218 84 58 28 111 51 118 51 6 0 12 5 12 10 0 14 -2 13 -125 -40z" />
      </g>
   </g>
   <g fill="rgb(112,46,12)">
      <g>
         <path
            d="M3165 3006 c-132 -50 -155 -63 -155 -91 0 -19 -7 -28 -27 -36 -16 -5 -48 -20 -73 -33 -25 -13 -164 -77 -310 -141 -146 -64 -330 -146 -410 -182 -80 -36 -161 -71 -180 -78 -19 -7 -62 -25 -95 -40 -33 -15 -105 -47 -160 -70 -55 -23 -154 -66 -220 -94 -66 -29 -167 -73 -225 -98 -145 -62 -133 -57 -250 -109 -58 -25 -161 -70 -230 -99 -69 -29 -147 -65 -173 -80 -27 -15 -63 -31 -80 -35 -18 -4 -42 -10 -54 -14 -32 -10 -29 10 5 29 27 16 27 16 2 11 -14 -3 -32 -6 -40 -6 -8 0 -23 -14 -32 -30 -13 -23 -24 -30 -47 -30 -19 0 -36 -8 -48 -23 -10 -13 -32 -28 -48 -34 -23 -7 -31 -17 -37 -48 -5 -24 -5 -42 2 -49 5 -5 10 -30 10 -54 0 -39 2 -43 20 -37 32 10 48 -11 56 -71 4 -36 11 -54 20 -54 8 0 14 10 14 23 0 32 32 61 48 45 7 -7 12 -18 12 -25 0 -7 11 -13 25 -13 19 0 25 5 26 23 3 87 24 115 95 128 27 5 59 20 74 33 31 29 101 69 160 92 25 9 77 31 115 49 39 18 81 35 95 39 31 7 77 42 68 51 -3 4 -15 2 -25 -3 -13 -8 -24 -5 -41 8 -12 10 -22 23 -22 29 0 18 -42 13 -56 -6 -12 -17 -13 -17 -14 -1 0 22 31 39 58 31 15 -4 22 -1 22 9 0 8 7 23 15 34 14 19 14 19 30 -3 9 -13 22 -23 29 -23 8 0 17 -8 21 -17 5 -14 9 -11 18 17 7 19 21 39 33 44 11 5 26 23 32 39 14 37 40 33 61 -10 14 -28 20 -32 44 -27 33 7 34 1 5 -26 -35 -32 1 -26 82 15 38 19 76 35 85 35 8 0 56 20 107 45 51 24 123 53 160 64 38 11 83 31 101 45 19 14 49 29 68 32 19 4 63 21 99 39 71 36 216 95 231 95 5 0 28 12 52 27 23 14 91 46 152 71 123 49 201 81 259 107 22 9 59 18 83 20 24 1 52 10 62 19 10 9 22 16 27 16 5 0 18 9 27 21 11 12 27 19 40 17 19 -3 23 -12 30 -64 5 -43 18 -79 42 -120 19 -32 35 -67 35 -79 0 -11 16 -45 35 -75 19 -30 35 -58 35 -62 0 -5 -35 -25 -77 -44 -43 -20 -73 -38 -67 -40 6 -3 40 9 75 26 35 16 69 30 76 30 14 0 83 -79 83 -95 0 -7 9 -20 20 -30 11 -10 20 -21 20 -26 0 -4 -35 -22 -77 -39 -70 -29 -108 -50 -91 -50 4 0 41 13 83 30 74 28 78 28 104 12 14 -9 45 -36 68 -60 46 -47 77 -53 114 -22 26 21 19 26 -12 10 -26 -14 -48 -1 -99 60 l-42 50 87 40 c48 22 90 40 95 40 4 0 25 -25 45 -55 21 -30 49 -62 62 -70 24 -16 63 -12 63 7 0 5 -8 7 -17 4 -12 -5 -34 12 -80 61 -34 37 -63 73 -63 79 0 6 -7 17 -15 24 -24 20 -90 133 -79 137 22 8 76 45 71 49 -3 3 -23 -4 -45 -15 l-40 -20 -53 77 c-63 93 -58 86 -64 81 -2 -3 16 -36 40 -74 25 -39 45 -75 45 -81 0 -12 -25 -24 -119 -60 -34 -13 -67 -21 -72 -18 -17 10 -89 140 -89 161 0 11 7 24 16 27 8 3 12 10 9 16 -4 7 -13 7 -26 0 -16 -9 -19 -7 -19 9 0 11 4 22 9 25 8 5 21 85 22 130 0 10 -8 27 -17 37 -20 22 -21 20 31 47 46 24 34 29 -18 7 -20 -8 -38 -15 -40 -15 -1 0 -3 44 -4 99 l-2 98 48 27 c28 15 56 23 65 20 20 -8 45 21 46 50 0 11 7 28 17 38 20 23 12 22 -62 -6z m-242 -331 c16 -14 25 -30 22 -35 -14 -23 -69 -42 -105 -37 -33 4 -37 2 -33 -14 4 -15 -6 -21 -53 -35 -33 -9 -64 -19 -71 -21 -7 -3 -20 11 -29 31 -14 29 -15 38 -4 51 7 9 21 14 30 13 9 -2 29 11 43 27 23 28 30 31 86 29 34 0 64 3 67 7 8 14 17 10 47 -16z m-809 -281 c6 -10 15 -22 20 -25 5 -4 5 -12 2 -18 -8 -13 -3 -13 47 -2 56 13 44 0 -33 -37 -60 -27 -73 -30 -90 -20 -22 14 -25 24 -10 33 6 3 10 21 10 39 0 53 32 71 54 30z m1321 -184 c25 -39 45 -75 45 -80 0 -5 -10 -12 -22 -16 -13 -4 -50 -20 -82 -35 -33 -16 -64 -29 -70 -29 -14 1 -74 82 -92 125 -13 32 -13 35 7 45 30 17 142 59 156 60 7 0 32 -32 58 -70z m-2561 -402 c19 -13 35 -26 36 -30 0 -11 -96 -58 -118 -58 -31 0 -47 26 -31 48 31 40 53 62 65 62 7 0 28 -10 48 -22z" />
         <path
            d="M3470 2736 c0 -83 -7 -116 -21 -94 -21 33 -6 -17 26 -88 36 -78 43 -114 24 -114 -10 0 -26 33 -70 148 -28 73 -55 86 -46 22 5 -40 5 -40 -44 -61 -42 -18 -49 -25 -48 -48 1 -17 3 -20 6 -8 2 9 12 17 21 17 9 0 31 8 47 18 l30 19 60 -101 c33 -56 81 -132 105 -170 51 -79 161 -196 185 -196 9 0 -10 24 -45 58 -33 31 -68 69 -78 83 -9 14 -38 58 -64 97 -52 77 -61 107 -28 97 27 -9 27 23 0 76 -12 22 -20 50 -19 62 1 12 1 75 1 140 -2 110 -3 117 -22 117 -18 0 -20 -7 -20 -74z" />
         <path
            d="M3180 2783 c0 -5 4 -15 10 -23 5 -9 5 -19 -1 -26 -6 -8 -5 -13 4 -17 8 -3 18 -23 21 -44 16 -91 46 -139 46 -75 0 33 33 68 60 64 17 -3 18 1 8 35 -5 21 -14 42 -19 48 -5 5 -9 17 -9 26 0 17 -3 17 -35 3 -44 -18 -55 -18 -55 1 0 8 -7 15 -15 15 -8 0 -15 -3 -15 -7z" />
         <path d="M3330 2773 c0 -5 9 -30 20 -58 17 -42 19 -44 14 -15 -8 42 -21 80 -29 80 -3 0 -5 -3 -5 -7z" />
         <path d="M3543 2575 c0 -22 2 -30 4 -17 2 12 2 30 0 40 -3 9 -5 -1 -4 -23z" />
         <path d="M3630 2381 c0 -5 7 -14 15 -21 16 -14 18 -10 9 14 -6 17 -24 22 -24 7z" />
         <path
            d="M3560 2363 c0 -28 106 -143 132 -143 27 0 22 12 -22 55 -22 21 -40 44 -40 50 0 19 -15 33 -43 40 -15 4 -27 3 -27 -2z" />
         <path d="M1605 2324 c-75 -39 -44 -42 40 -4 35 16 37 18 15 19 -14 1 -38 -6 -55 -15z" />
         <path
            d="M2495 2191 c-22 -10 -65 -30 -95 -43 -30 -14 -91 -41 -135 -61 -44 -19 -108 -47 -143 -62 -34 -16 -61 -30 -59 -32 2 -2 51 17 108 41 57 24 165 70 239 101 74 31 142 61 150 66 29 17 -23 8 -65 -10z" />
         <path
            d="M2480 2141 c-41 -20 -93 -44 -115 -53 -22 -10 -80 -35 -130 -57 -216 -95 -300 -131 -306 -131 -4 0 -92 -39 -195 -86 -202 -92 -401 -174 -420 -174 -28 0 -174 -78 -174 -93 0 -5 18 -34 40 -64 22 -31 40 -62 40 -70 0 -7 6 -13 13 -13 6 0 31 -30 55 -65 25 -40 49 -65 60 -65 10 0 49 15 88 34 39 18 81 37 95 41 25 7 127 51 514 220 121 53 291 126 377 163 87 37 158 70 158 75 0 15 -32 5 -127 -39 -54 -25 -134 -62 -178 -81 -139 -61 -358 -154 -420 -180 -33 -13 -119 -51 -190 -84 -113 -51 -139 -59 -190 -59 -41 0 -70 6 -91 19 -41 25 -94 107 -94 144 0 29 42 97 60 97 4 0 46 17 92 39 117 54 258 118 438 196 85 37 229 101 320 142 182 83 218 90 288 54 36 -18 76 -57 84 -82 2 -6 21 -6 53 0 42 8 52 7 63 -6 16 -23 15 -30 -7 -36 -13 -3 -20 -17 -24 -48 -3 -24 -4 -46 -1 -48 6 -7 94 37 94 46 0 5 -14 33 -31 63 -28 51 -29 56 -12 67 15 12 13 13 -15 13 -18 0 -32 5 -32 10 0 6 -4 10 -10 10 -5 0 -10 -9 -10 -20 0 -16 -7 -20 -35 -20 l-36 0 7 38 c9 49 13 55 30 41 22 -18 18 11 -6 41 -11 14 -20 33 -20 43 0 24 -14 21 -100 -22z" />
         <path d="M1190 2133 c-55 -18 -221 -96 -216 -100 5 -5 226 86 241 99 10 9 -1 10 -25 1z" />
         <path
            d="M2403 2009 c-44 -31 -57 -54 -25 -45 58 16 99 17 112 1 17 -20 3 -31 -47 -41 -35 -7 -44 -29 -21 -52 20 -20 45 -13 71 20 25 31 25 31 38 10 15 -25 39 -29 39 -8 0 7 -7 19 -15 26 -9 7 -14 14 -12 16 4 5 -86 104 -93 104 -3 -1 -24 -14 -47 -31z" />
         <path d="M1985 1965 c-27 -13 -45 -23 -40 -24 6 0 33 11 60 24 28 13 46 23 40 24 -5 0 -32 -11 -60 -24z" />
         <path
            d="M2275 1907 c3 -52 1 -59 -20 -73 -29 -19 -41 -13 -50 26 -9 39 -25 49 -25 14 0 -22 -2 -25 -15 -14 -9 8 -28 10 -50 6 -35 -7 -36 -8 -29 -44 l7 -37 -25 23 c-13 12 -29 22 -35 22 -6 0 -14 6 -16 13 -4 8 -12 5 -24 -11 -11 -13 -27 -22 -38 -20 -10 1 -20 -3 -23 -11 -3 -10 0 -12 11 -8 21 8 63 -26 71 -58 5 -21 10 -24 36 -18 19 3 30 1 30 -6 0 -24 19 -10 22 17 2 20 9 28 28 30 14 2 30 8 35 12 6 5 17 5 25 0 23 -14 30 -12 30 10 0 23 52 53 92 52 16 0 32 6 37 16 8 15 11 13 20 -10 12 -32 31 -37 31 -9 0 26 -41 66 -83 82 -22 7 -38 21 -41 33 -3 12 -3 -5 -1 -37z" />
         <path d="M1752 1868 c-73 -34 -131 -62 -129 -64 4 -4 240 96 273 114 13 8 14 11 4 11 -8 -1 -75 -28 -148 -61z" />
         <path d="M1550 1775 c-14 -8 -20 -14 -15 -14 6 0 21 6 35 14 14 8 21 14 15 14 -5 0 -21 -6 -35 -14z" />
         <path d="M1853 1761 c-60 -33 -84 -52 -77 -62 8 -13 71 -3 102 17 21 14 30 48 15 57 -5 3 -22 -3 -40 -12z" />
         <path
            d="M1685 1696 c-22 -11 -42 -22 -44 -23 -3 -2 20 -33 69 -91 l19 -23 31 22 c23 18 33 20 42 11 7 -7 18 -12 26 -12 8 0 -2 19 -26 48 -21 26 -44 57 -51 70 -14 26 -14 26 -66 -2z m50 -16 c3 -5 0 -18 -7 -30 -10 -16 -10 -24 0 -40 17 -28 15 -32 -8 -20 -11 6 -20 16 -20 22 0 6 -8 20 -17 30 -15 17 -15 19 3 33 22 17 40 19 49 5z" />
         <path
            d="M1345 1690 c-22 -10 -47 -19 -56 -19 -33 -2 -185 -81 -155 -81 6 0 260 111 265 116 9 9 -16 1 -54 -16z" />
         <path
            d="M1880 1685 c-19 -14 -40 -25 -47 -25 -18 0 -16 -14 5 -33 14 -13 21 -14 30 -5 7 7 29 13 48 15 45 3 45 3 35 39 -10 37 -27 39 -71 9z" />
         <path
            d="M1579 1648 c-2 -19 -4 -30 -13 -60 -5 -16 -5 -40 -1 -55 7 -26 8 -25 21 22 16 60 18 105 4 105 -5 0 -11 -6 -11 -12z" />
         <path
            d="M1430 1582 c-69 -44 -90 -82 -45 -82 29 0 32 -8 9 -25 -14 -10 -12 -13 16 -25 25 -10 36 -11 49 -2 30 22 44 25 61 14 10 -6 20 -9 23 -6 6 6 -66 84 -78 84 -5 0 -4 -5 3 -12 30 -30 3 -51 -29 -22 -16 15 -16 17 3 50 24 41 22 47 -12 26z" />
         <path
            d="M410 1295 c0 -24 63 -129 117 -194 1 -2 6 -2 9 2 3 3 -5 21 -19 39 -35 47 -79 137 -72 148 4 6 -3 10 -14 10 -12 0 -21 -2 -21 -5z" />
         <path
            d="M1195 1163 c-104 -43 -308 -134 -359 -160 -40 -20 -54 -23 -68 -14 -14 9 -18 8 -18 -2 0 -19 43 -57 65 -57 17 0 17 1 1 19 -17 19 -17 20 11 34 29 15 149 67 332 143 57 23 108 47 114 53 18 18 -11 11 -78 -16z" />
      </g>
   </g>
   <g fill="rgb(75,25,8)">
      <g>
         <path
            d="M3246 3338 c3 -13 7 -41 9 -63 4 -54 32 -181 45 -205 10 -20 30 -27 30 -12 0 4 -5 23 -10 42 -23 76 -30 143 -18 182 10 33 9 41 -7 58 -26 28 -55 27 -49 -2z" />
         <path
            d="M3074 2970 c-46 -21 -63 -34 -68 -53 -7 -28 -75 -67 -258 -147 -89 -38 -120 -60 -85 -60 33 0 185 69 253 115 64 44 70 38 77 -72 4 -59 3 -101 -3 -107 -6 -6 -4 -16 7 -28 11 -12 20 -46 24 -91 4 -40 10 -79 14 -88 6 -17 -22 -31 -265 -132 -47 -19 -119 -50 -160 -67 -41 -18 -142 -61 -225 -95 -168 -70 -525 -222 -805 -343 -102 -44 -311 -134 -465 -200 -154 -66 -342 -147 -417 -180 -191 -84 -178 -82 -178 -30 0 24 -9 60 -20 81 -20 37 -26 78 -14 90 4 4 7 62 8 129 l1 123 65 32 c49 24 59 32 40 32 -14 1 -47 -7 -74 -18 -85 -32 -95 -78 -70 -329 10 -93 20 -152 30 -168 16 -23 15 -24 -17 -38 -19 -8 -37 -12 -40 -8 -4 4 -16 48 -29 99 -18 76 -21 113 -18 222 1 72 1 131 -1 131 -2 0 -16 -11 -33 -25 -16 -14 -36 -25 -44 -25 -8 0 -14 -9 -14 -20 0 -18 3 -19 21 -9 12 6 25 7 29 2 5 -4 14 -73 20 -152 14 -182 52 -299 82 -259 7 10 25 20 40 23 21 5 27 3 33 -14 29 -91 285 -391 366 -428 21 -10 39 -21 39 -25 0 -10 -68 -28 -106 -28 -25 0 -42 12 -90 63 -72 77 -109 124 -159 200 -39 58 -67 79 -41 29 19 -35 107 -152 175 -233 61 -72 101 -95 141 -80 14 5 43 12 65 16 89 15 402 186 338 185 -5 0 -44 -21 -88 -45 -44 -25 -104 -57 -133 -71 l-54 -26 -51 25 c-102 50 -285 255 -353 395 l-31 63 31 13 c17 7 92 40 166 73 74 33 203 88 285 123 83 34 312 132 510 218 447 192 598 257 795 339 293 123 346 145 530 220 102 41 190 77 197 80 6 2 15 -6 19 -19 8 -22 8 -22 13 6 5 25 17 34 95 67 99 43 106 45 106 26 0 -7 7 -22 15 -33 13 -17 14 -16 8 18 -5 32 -2 41 18 58 40 32 4 23 -127 -34 l-124 -55 0 35 c0 19 -6 47 -14 62 -15 30 -29 152 -28 255 1 76 10 90 86 129 38 19 40 20 53 2 7 -10 13 -44 13 -77 0 -32 5 -67 10 -77 7 -13 7 -21 -1 -25 -7 -5 -5 -11 4 -18 8 -7 23 -47 32 -89 11 -46 23 -78 30 -78 10 0 8 18 -7 73 -11 39 -21 83 -22 97 0 14 -4 27 -8 30 -9 7 -30 170 -24 187 10 25 -21 25 -85 -1 -35 -14 -65 -23 -68 -20 -8 8 27 33 77 55 42 18 54 30 30 28 -7 0 -41 -13 -74 -29z" />
         <path
            d="M3337 2982 c-33 -15 -37 -20 -32 -42 4 -14 11 -56 17 -95 5 -38 21 -108 35 -155 15 -47 28 -91 30 -99 11 -41 17 18 18 179 1 152 4 183 18 198 10 10 17 22 17 25 0 13 -65 5 -103 -11z" />
         <path
            d="M3446 2888 c-2 -7 -9 -28 -15 -46 -7 -22 -7 -50 -1 -84 6 -28 10 -68 10 -90 0 -21 7 -53 16 -70 l16 -32 14 33 c8 18 14 64 14 101 0 37 7 86 14 108 15 41 14 42 -12 60 -45 31 -52 34 -56 20z" />
         <path
            d="M3550 2779 c-10 -23 -13 -65 -11 -133 2 -82 6 -105 23 -128 11 -16 22 -28 23 -26 2 2 -3 48 -11 104 -13 87 -13 106 -1 142 11 33 12 45 2 58 -10 15 -13 12 -25 -17z" />
         <path
            d="M2490 2604 c-15 -39 -13 -94 4 -94 8 0 18 5 22 11 3 6 19 9 35 5 16 -3 29 -4 29 -1 0 2 -5 27 -11 55 -10 46 -13 50 -40 50 -22 0 -32 -6 -39 -26z" />
         <path
            d="M3615 2579 c-14 -21 6 -56 49 -87 24 -18 47 -32 50 -32 3 0 6 22 6 48 0 35 -5 54 -18 65 -21 19 -77 23 -87 6z" />
         <path
            d="M2328 2518 c-39 -20 -42 -28 -29 -62 7 -18 8 -19 14 -2 6 16 14 17 50 12 34 -6 40 -5 30 5 -7 7 -13 26 -13 41 0 33 -3 33 -52 6z" />
         <path
            d="M2515 2456 c-139 -56 -179 -75 -173 -82 3 -2 56 17 119 42 63 25 133 54 156 63 23 9 45 20 49 24 17 17 -29 2 -151 -47z" />
         <path
            d="M2151 2446 c-29 -31 -40 -93 -17 -102 9 -4 25 1 35 10 10 9 27 16 39 16 30 0 28 16 -4 33 -17 9 -23 17 -15 21 15 10 14 46 -2 46 -8 0 -23 -11 -36 -24z" />
         <path
            d="M3787 2430 c-3 -8 -10 -33 -16 -55 -6 -22 -17 -49 -26 -60 -15 -19 -17 -18 -70 39 -30 33 -55 54 -55 47 0 -7 26 -40 57 -73 l58 -60 32 37 c36 42 51 93 35 122 -9 15 -11 15 -15 3z" />
         <path
            d="M1992 2327 c-18 -18 -32 -43 -32 -55 0 -28 11 -28 36 -1 12 14 25 18 41 14 13 -3 23 -1 23 5 0 5 -4 10 -9 10 -6 0 -9 12 -8 26 3 39 -14 39 -51 1z" />
         <path
            d="M3802 2256 c-6 -14 -23 -33 -38 -42 -26 -18 -27 -18 -48 8 -20 24 -66 47 -66 33 0 -4 19 -26 43 -50 32 -31 48 -41 58 -34 8 5 25 9 40 9 35 0 49 18 49 62 0 44 -21 52 -38 14z" />
         <path d="M1646 2227 c-18 -13 -40 -107 -26 -107 4 0 28 12 54 26 33 18 46 32 46 48 0 42 -38 59 -74 33z" />
         <path
            d="M1491 2139 c-37 -16 -42 -22 -37 -42 3 -12 6 -25 6 -29 0 -10 50 11 73 30 18 16 23 47 9 56 -4 2 -27 -4 -51 -15z" />
         <path
            d="M1047 2144 c-4 -4 -7 -18 -7 -30 0 -14 -15 -35 -37 -54 -32 -26 -34 -31 -14 -25 49 15 226 95 226 102 0 10 -158 16 -168 7z" />
         <path
            d="M1323 2070 c-10 -11 -23 -20 -31 -20 -9 0 -12 -10 -10 -27 3 -29 8 -30 64 -18 25 6 34 31 23 63 -10 27 -24 28 -46 2z" />
         <path
            d="M1145 1995 c-28 -27 -31 -52 -11 -81 14 -18 16 -18 43 -2 23 14 29 24 31 62 3 41 1 46 -18 46 -11 0 -32 -11 -45 -25z" />
         <path
            d="M820 1931 c-63 -27 -137 -62 -165 -78 -48 -27 -49 -28 -22 -31 16 -2 44 7 70 22 23 14 92 50 152 80 136 69 118 72 -35 7z" />
         <path
            d="M1340 1954 c-19 -9 -58 -24 -86 -34 -108 -38 -204 -90 -166 -90 19 0 292 116 306 130 15 15 -13 12 -54 -6z" />
         <path
            d="M2975 1909 c-77 -33 -189 -79 -250 -103 -60 -25 -180 -75 -265 -111 -153 -67 -305 -130 -490 -205 -162 -65 -257 -105 -475 -200 -115 -51 -218 -94 -228 -97 -15 -5 -25 -23 -12 -23 2 0 52 20 109 45 58 25 108 45 110 45 8 0 267 109 361 152 50 23 131 58 180 79 50 20 140 58 200 84 61 26 160 66 220 90 129 50 640 266 682 289 66 36 -12 11 -142 -45z" />
         <path
            d="M962 1945 c-18 -8 -34 -20 -37 -27 -8 -21 9 -101 23 -106 6 -2 25 9 41 25 15 16 32 28 37 26 5 -2 10 20 12 47 2 46 1 50 -20 50 -13 -1 -38 -7 -56 -15z" />
      </g>
   </g>
</svg>